<?xml version="1.0" encoding="UTF-8"?>
<svg version="1.1" xmlns="http://www.w3.org/2000/svg" width="1797" height="384">
<path d="M0 0 C593.01 0 1186.02 0 1797 0 C1797 126.72 1797 253.44 1797 384 C1203.99 384 610.98 384 0 384 C0 257.28 0 130.56 0 0 Z " fill="#FEFEFD" transform="translate(0,0)"/>
<path d="M0 0 C0.9384375 -0.020625 1.876875 -0.04125 2.84375 -0.0625 C14.1992215 -0.12523741 23.86578654 2.98543573 32.0625 11 C33.1453125 12.11375 33.1453125 12.11375 34.25 13.25 C35.24 13.58 36.23 13.91 37.25 14.25 C37.19779297 13.32767578 37.19779297 13.32767578 37.14453125 12.38671875 C37.11746094 11.57847656 37.09039063 10.77023438 37.0625 9.9375 C37.01029297 8.73673828 37.01029297 8.73673828 36.95703125 7.51171875 C37.32383066 4.68002731 38.04491971 4.00636949 40.25 2.25 C42.12931824 1.88923645 42.12931824 1.88923645 44.26245117 1.90942383 C45.06305466 1.90965042 45.86365814 1.90987701 46.68852234 1.91011047 C47.54798965 1.92559433 48.40745697 1.94107819 49.29296875 1.95703125 C50.61836418 1.96339851 50.61836418 1.96339851 51.97053528 1.96989441 C54.79316661 1.98668957 57.61508441 2.02434303 60.4375 2.0625 C62.35090115 2.07754577 64.26431349 2.09123436 66.17773438 2.10351562 C70.86876459 2.13659581 75.55926131 2.1883837 80.25 2.25 C81.0222024 6.77881493 81.30246967 10.70624087 80.7265625 15.26171875 C80.52546875 16.89270508 80.52546875 16.89270508 80.3203125 18.55664062 C80.17335938 19.67232422 80.02640625 20.78800781 79.875 21.9375 C79.73578125 23.06478516 79.5965625 24.19207031 79.453125 25.35351562 C78.40737009 33.64556282 78.40737009 33.64556282 77.75292969 36.15917969 C77.25287595 38.23804388 76.99260974 40.21320922 76.79833984 42.34106445 C76.72362457 43.13151657 76.6489093 43.92196869 76.57192993 44.7363739 C76.49405243 45.58262833 76.41617493 46.42888275 76.3359375 47.30078125 C75.44773921 56.54645197 74.36901963 65.75620652 73.19058228 74.96887207 C72.75098741 78.40758278 72.31790953 81.84710641 71.88441467 85.28659058 C71.66261403 87.04632738 71.44055939 88.80603219 71.21824646 90.56570435 C70.14778406 99.04155087 69.09698134 107.51969061 68.0625 116 C67.97873108 116.68300171 67.89496216 117.36600342 67.80865479 118.06970215 C66.92590996 125.28061989 66.10675143 132.48647784 65.46826172 139.72314453 C63.26925882 164.5517075 56.76753649 191.3139468 36.96533203 208.10083008 C25.29147636 217.45389313 10.74140267 222.9866072 -3.75 226.25 C-4.49813965 226.42587646 -5.2462793 226.60175293 -6.01708984 226.78295898 C-13.75915092 228.42033865 -21.41843347 228.58939143 -29.29443359 228.56567383 C-31.51057911 228.56248478 -33.72542191 228.58616314 -35.94140625 228.61132812 C-37.37239418 228.61359925 -38.80338564 228.61430548 -40.234375 228.61328125 C-42.14814941 228.61775269 -42.14814941 228.61775269 -44.10058594 228.62231445 C-48.18154538 228.20597359 -52.7186231 227.2813769 -55.75 224.25 C-56.21198177 216.2337608 -54.81783437 208.67918965 -53.375 200.8125 C-53.04242187 198.8953418 -53.04242187 198.8953418 -52.703125 196.93945312 C-52.48398438 195.72322266 -52.26484375 194.50699219 -52.0390625 193.25390625 C-51.74056396 191.59597046 -51.74056396 191.59597046 -51.43603516 189.90454102 C-50.75 187.25 -50.75 187.25 -48.75 185.25 C-46.08048582 185.2679162 -43.52758547 185.39778252 -40.875 185.625 C-39.31393499 185.73241796 -37.75273426 185.83788112 -36.19140625 185.94140625 C-34.71092566 186.04410035 -33.23045583 186.14694966 -31.75 186.25 C-18.0577736 187.1808683 -1.88126357 184.83528307 9.25 176.25 C15.02587323 170.39059141 18.25498229 163.40914522 19.25 155.25 C17.88875 156.054375 17.88875 156.054375 16.5 156.875 C13.15674882 158.76996018 9.78213269 160.59736556 6.375 162.375 C5.42882813 162.87257813 4.48265625 163.37015625 3.5078125 163.8828125 C-10.94476231 169.94804174 -28.33026168 168.63649158 -42.75 163.25 C-55.89065719 157.57027861 -65.42298256 148.44689842 -71 135.25 C-74.55838063 126.26040682 -75.04765436 117.65661065 -74.9375 108.0625 C-74.9274292 106.85505127 -74.9173584 105.64760254 -74.90698242 104.40356445 C-74.8697147 101.0186032 -74.81349405 97.63455587 -74.75 94.25 C-74.74129883 93.50459961 -74.73259766 92.75919922 -74.72363281 91.99121094 C-74.31532222 65.422863 -64.53042829 37.57069973 -46.01171875 18.41796875 C-32.52475016 5.69405355 -18.41617293 0.09954688 0 0 Z " fill="#121928" transform="translate(1539.75,147.75)"/>
<path d="M0 0 C-0.39040398 8.23008287 -2.04963305 15.54772705 -4.5625 23.375 C-4.91892578 24.50550781 -5.27535156 25.63601562 -5.64257812 26.80078125 C-14.58847792 54.75475286 -25.93791886 81.96413173 -43 106 C-43.6496875 106.93585938 -44.299375 107.87171875 -44.96875 108.8359375 C-54.25484996 121.76024827 -65.29923501 133.40886183 -78 143 C-78.89460937 143.721875 -79.78921875 144.44375 -80.7109375 145.1875 C-89.21035988 151.89389355 -98.41928949 157.01037131 -108 162 C-109.10214844 162.57878906 -110.20429688 163.15757812 -111.33984375 163.75390625 C-134.70835646 175.27274842 -161.78051049 179.21091729 -187.58007812 179.13037109 C-189.62898084 179.12498954 -191.6776662 179.13036179 -193.7265625 179.13671875 C-200.55660496 179.13981627 -207.2292928 178.94162153 -214 178 C-213.4074187 172.60327748 -212.0738173 167.91123411 -210.25 162.8125 C-208.02522516 156.39289031 -206.18059995 149.98712687 -204.625 143.375 C-197.71967351 114.56175373 -186.54545051 85.42004521 -168 62 C-166.99066406 60.68708984 -166.99066406 60.68708984 -165.9609375 59.34765625 C-152.3478649 42.09618061 -136.31187956 29.33419864 -117 19 C-116.31035156 18.61457031 -115.62070312 18.22914063 -114.91015625 17.83203125 C-80.73416345 -0.48989049 -37.82917299 -1.04278891 0 0 Z " fill="#F25A96" transform="translate(462,188)"/>
<path d="M0 0 C3.06671084 1.35875406 5.07279895 2.86146743 7.35546875 5.30859375 C8.28202271 6.29666016 8.28202271 6.29666016 9.22729492 7.3046875 C9.8741626 8.00851563 10.52103027 8.71234375 11.1875 9.4375 C11.85950439 10.16324219 12.53150879 10.88898437 13.22387695 11.63671875 C18.38381093 17.24742417 23.33671409 22.96707767 28 29 C28.45439453 29.58716797 28.90878906 30.17433594 29.37695312 30.77929688 C40.46635587 45.17068252 50.44767473 59.96048851 59 76 C59.52207031 76.97622314 59.52207031 76.97622314 60.0546875 77.97216797 C68.17106443 93.29335506 74.42474828 109.00918354 78 126 C78.18191895 126.82483887 78.36383789 127.64967773 78.55126953 128.49951172 C81.52226031 142.14396896 82.51340709 155.05244074 82 169 C80.41638672 169.67482422 80.41638672 169.67482422 78.80078125 170.36328125 C54.82575523 180.71201586 31.97126844 192.76262975 13 211 C11.65180958 212.17356766 10.29777672 213.34046315 8.9375 214.5 C1.01004441 220.97287487 1.01004441 220.97287487 -5 229 C-5.99 229 -6.98 229 -8 229 C-9.76953125 227.0859375 -9.76953125 227.0859375 -11.8125 224.375 C-21.41052595 212.29204824 -32.57315458 202.10251202 -45 193 C-46.58748047 191.83017578 -46.58748047 191.83017578 -48.20703125 190.63671875 C-54.74650228 185.96797186 -61.4620751 181.89948407 -68.53271484 178.09326172 C-70.37531147 177.09365886 -72.18936076 176.05614127 -74 175 C-75.45599609 174.16855469 -75.45599609 174.16855469 -76.94140625 173.3203125 C-80.1285697 169.7279499 -79.62220891 166.32473434 -79.4375 161.6875 C-79.41864746 160.79683838 -79.39979492 159.90617676 -79.38037109 158.98852539 C-79.15366277 151.23245812 -78.32507442 143.64780608 -77 136 C-76.86795166 135.18208984 -76.73590332 134.36417969 -76.59985352 133.52148438 C-75.45075973 126.71293714 -73.74413437 120.21212675 -71.6875 113.625 C-71.37482178 112.61622803 -71.06214355 111.60745605 -70.73999023 110.56811523 C-66.83250925 98.10530747 -62.00465886 86.48202677 -55.98339844 74.89746094 C-55.09345995 73.18033037 -54.22143708 71.45394378 -53.3515625 69.7265625 C-42.35813381 48.43684937 -27.22666191 29.42388191 -11.38476562 11.56835938 C-9.01184539 8.88083477 -6.69240634 6.14678775 -4.3671875 3.41796875 C-3 2 -3 2 0 0 Z " fill="#F25B96" transform="translate(279,10)"/>
<path d="M0 0 C1.30553833 -0.02078613 1.30553833 -0.02078613 2.63745117 -0.04199219 C13.64312631 0.03687922 23.33762749 3.43037316 31.375 11.0625 C33.375 13.375 33.375 13.375 33.375 15.375 C34.365 15.375 35.355 15.375 36.375 15.375 C36.313125 14.158125 36.25125 12.94125 36.1875 11.6875 C35.98611697 7.72696702 36.77865475 5.41342147 39.375 2.375 C42.36954863 1.63985367 45.31483256 1.77034479 48.3828125 1.8515625 C49.26403778 1.85626556 50.14526306 1.86096863 51.05319214 1.86581421 C53.86958675 1.88718149 56.6841071 1.94382618 59.5 2 C61.40493028 2.01650271 63.30988052 2.03085191 65.21484375 2.04296875 C79.17964028 2.17964028 79.17964028 2.17964028 80.375 3.375 C80.87184823 9.76469937 80.37066833 16.10616366 79.546875 22.4453125 C79.45913315 23.12611374 79.3713913 23.80691498 79.2809906 24.50834656 C78.9839263 26.79790948 78.68042253 29.08653743 78.375 31.375 C78.26515778 32.19817719 78.15531555 33.02135437 78.04214478 33.86947632 C77.43813544 38.38266608 76.82915675 42.89517528 76.21850586 47.4074707 C74.15502681 62.66431993 72.11367256 77.91224987 70.49072266 93.22314453 C69.38997532 103.51874769 68.10513891 113.78957107 66.8125 124.0625 C66.65308426 125.32944199 66.65308426 125.32944199 66.490448 126.62197876 C65.64458837 133.33795172 65.64458837 133.33795172 65.25315857 136.40480042 C64.76396558 140.24380418 64.28892452 144.08333536 63.84814453 147.92822266 C63.76347427 148.65056595 63.67880402 149.37290924 63.59156799 150.11714172 C63.36400821 152.06692402 63.14281665 154.01744662 62.92211914 155.96801758 C62.3830775 159.32470034 61.69392022 162.24131415 60.375 165.375 C56.56381655 167.91578897 53.47416827 167.66332297 49.05859375 167.640625 C47.84019554 167.64349518 47.84019554 167.64349518 46.59718323 167.64642334 C44.88159881 167.64778347 43.16600405 167.64409904 41.45043945 167.63574219 C38.81893931 167.62502622 36.18811971 167.6356502 33.55664062 167.6484375 C31.89062349 167.64711615 30.22460678 167.64455425 28.55859375 167.640625 C27.3741996 167.64669769 27.3741996 167.64669769 26.1658783 167.65289307 C20.60492975 167.60492975 20.60492975 167.60492975 18.375 165.375 C18.1796875 162.5546875 18.1796875 162.5546875 18.25 159.25 C18.26804687 158.15429688 18.28609375 157.05859375 18.3046875 155.9296875 C18.32789063 155.08664062 18.35109375 154.24359375 18.375 153.375 C17.87613281 153.79910156 17.37726563 154.22320312 16.86328125 154.66015625 C5.41375109 164.01300404 -6.14036995 169.79227177 -21 169.6875 C-21.83853516 169.68186035 -22.67707031 169.6762207 -23.54101562 169.67041016 C-29.6681318 169.55020061 -34.99944014 168.9533816 -40.625 166.375 C-41.511875 165.9728125 -42.39875 165.570625 -43.3125 165.15625 C-59.77019885 156.92740057 -68.15093648 143.79719055 -73.8125 126.8125 C-74.64458648 123.29213412 -75.07543795 119.89123571 -75.37890625 116.29296875 C-75.5283004 114.29361024 -75.5283004 114.29361024 -76.625 112.375 C-76.75359146 109.69551283 -76.81529881 107.05514468 -76.8125 104.375 C-76.81169434 103.57771484 -76.81088867 102.78042969 -76.81005859 101.95898438 C-76.67215757 88.16888217 -75.61277713 73.28634508 -70.390625 60.41015625 C-69.57250629 58.23546315 -69.01569237 56.06226133 -68.4375 53.8125 C-64.89105106 41.86850097 -57.94478056 31.50323981 -49.625 22.375 C-48.65433594 21.28251953 -48.65433594 21.28251953 -47.6640625 20.16796875 C-42.64365336 14.80945042 -36.96257344 11.03380528 -30.625 7.375 C-29.94566406 6.9728125 -29.26632812 6.570625 -28.56640625 6.15625 C-19.53187998 1.19759109 -10.15192921 0.09642145 0 0 Z " fill="#121928" transform="translate(1367.625,147.625)"/>
<path d="M0 0 C2.10433112 -0.00966509 4.20766615 -0.0407472 6.31176758 -0.07226562 C25.76061369 -0.22604082 44.72468857 6.02261335 59.1887207 19.49023438 C69.77039988 30.83318544 74.61354244 43.90042899 74.6262207 59.17773438 C74.6384668 59.95052734 74.65071289 60.72332031 74.66333008 61.51953125 C74.67587799 66.46759218 74.22219765 70.60082424 72.4387207 75.24023438 C68.62753725 77.78102334 65.53788897 77.52855735 61.12231445 77.50585938 C59.90391624 77.50872955 59.90391624 77.50872955 58.66090393 77.51165771 C56.94531952 77.51301784 55.22972476 77.50933341 53.51416016 77.50097656 C50.88266001 77.4902606 48.25184041 77.50088457 45.62036133 77.51367188 C43.95434419 77.51235052 42.28832748 77.50978863 40.62231445 77.50585938 C39.4379203 77.51193207 39.4379203 77.51193207 38.229599 77.51812744 C32.66865045 77.47016412 32.66865045 77.47016412 30.4387207 75.24023438 C30.33032404 73.32036264 30.23314968 71.39866276 30.21386719 69.47583008 C30.12433911 61.29400677 29.49560594 55.27084245 23.4387207 49.24023438 C14.81799114 41.22384461 6.15439008 39.65309998 -5.3112793 39.67773438 C-6.46909912 39.68015137 -7.62691895 39.68256836 -8.81982422 39.68505859 C-18.40686331 39.89228004 -24.89813639 41.29147876 -32.2644043 47.72851562 C-36.43838466 52.17836251 -38.69728325 57.63009528 -38.9362793 63.67773438 C-38.67914793 69.72546423 -37.31101882 74.93076876 -32.8737793 79.24023438 C-23.24000243 86.71506759 -10.8745194 91.09726439 0.4387207 95.24023438 C9.31181949 98.54252501 18.00939134 102.13041502 26.6262207 106.05273438 C28.27267578 106.77686523 28.27267578 106.77686523 29.95239258 107.515625 C43.71741187 113.78735803 56.24387772 123.80006539 62.3684082 137.99023438 C67.1728637 153.78874041 64.23018464 173.16237141 56.85522461 187.56713867 C47.39356733 204.94497057 31.79701217 217.03025306 13.00415039 223.015625 C3.39415877 225.81407819 -6.13851819 228.36299211 -16.2019043 228.37304688 C-17.43682617 228.37433594 -18.67174805 228.375625 -19.9440918 228.37695312 C-21.22026367 228.37308594 -22.49643555 228.36921875 -23.8112793 228.36523438 C-25.10291992 228.36910156 -26.39456055 228.37296875 -27.7253418 228.37695312 C-28.95510742 228.37566406 -30.18487305 228.374375 -31.4519043 228.37304688 C-32.57628906 228.37191895 -33.70067383 228.37079102 -34.85913086 228.36962891 C-37.5612793 228.24023438 -37.5612793 228.24023438 -39.5612793 227.24023438 C-41.07935215 227.08527042 -42.60110316 226.96531637 -44.1237793 226.86523438 C-59.53716956 225.37006956 -75.86048887 216.59422201 -85.69018555 204.65429688 C-94.26499044 192.73191679 -97.42692044 179.84792868 -96.5612793 165.24023438 C-96.5303418 164.25667969 -96.4994043 163.273125 -96.4675293 162.25976562 C-96.08245702 154.97227283 -96.08245702 154.97227283 -94.04907227 152.11621094 C-90.55219493 149.47931148 -87.34944965 149.7204193 -83.1472168 149.81445312 C-81.93094101 149.8193853 -81.93094101 149.8193853 -80.69009399 149.82441711 C-78.98040714 149.83482108 -77.27075518 149.85474257 -75.5612793 149.88354492 C-72.93868705 149.92769384 -70.31700998 149.94499275 -67.6940918 149.95703125 C-66.0326202 149.97045265 -64.3711599 149.98537489 -62.7097168 150.00195312 C-61.92325775 150.00934006 -61.13679871 150.01672699 -60.32650757 150.02433777 C-54.79805134 150.12184836 -54.79805134 150.12184836 -52.5612793 151.24023438 C-52.3513572 153.75929955 -52.24251939 156.21734318 -52.1862793 158.74023438 C-51.78532188 167.48110612 -50.44978414 173.78924285 -43.9362793 180.05273438 C-32.76319506 189.07071061 -18.27622652 189.62344692 -4.5612793 188.24023438 C3.34465863 186.6000627 10.29447801 182.79914448 15.1730957 176.30664062 C18.82036354 170.35168789 20.72566216 164.25100118 19.4387207 157.24023438 C15.51421362 147.54234132 6.99424085 143.81625664 -2.11669922 139.94067383 C-3.31528564 139.44140381 -4.51387207 138.94213379 -5.7487793 138.42773438 C-7.0059647 137.8960599 -8.2628794 137.36374489 -9.51953125 136.83081055 C-15.91314338 134.12946894 -22.33798199 131.51885029 -28.80712891 129.00317383 C-49.62522859 120.89949799 -69.40930043 111.27521735 -79.33862305 90.11914062 C-82.44700485 82.80004354 -82.88128654 76.12686449 -82.5612793 68.24023438 C-82.51680664 66.67015625 -82.51680664 66.67015625 -82.47143555 65.06835938 C-81.58572316 47.00846768 -73.54103259 32.47535296 -60.5612793 20.24023438 C-43.37397376 4.91230447 -22.49130152 0.06222377 0 0 Z " fill="#121928" transform="translate(1205.561279296875,88.759765625)"/>
<path d="M0 0 C0.80050781 0.29003906 1.60101562 0.58007812 2.42578125 0.87890625 C7.93562319 3.09210326 12.48500233 6.17105947 17 10 C17.59683594 10.50144531 18.19367188 11.00289062 18.80859375 11.51953125 C30.22598083 21.97063613 37.20257354 39.56898358 38.11367798 54.91467285 C38.27591049 59.4207651 38.28502409 63.9248534 38.26074219 68.43334961 C38.24994374 70.82496025 38.26072798 73.21583287 38.2734375 75.60742188 C38.27211711 77.14062664 38.26955721 78.67383096 38.265625 80.20703125 C38.26967346 80.91543655 38.27372192 81.62384186 38.27789307 82.35371399 C38.22926634 87.50671009 37.71190252 91.28809748 34 95 C32.20778465 95.24609566 32.20778465 95.24609566 30.00106812 95.24050903 C29.16531754 95.24325836 28.32956696 95.24600769 27.4684906 95.24884033 C26.54995804 95.24164978 25.63142548 95.23445923 24.68505859 95.22705078 C23.71916306 95.22734283 22.75326752 95.22763489 21.75810242 95.22793579 C18.55479045 95.22653872 15.351709 95.21095974 12.1484375 95.1953125 C9.93169278 95.19158371 7.71494642 95.18873611 5.49819946 95.18673706 C-0.34456916 95.17909004 -6.18723882 95.15943237 -12.02996826 95.1373291 C-17.98871522 95.11689368 -23.94747812 95.10774028 -29.90625 95.09765625 C-41.60421022 95.07618749 -53.30209689 95.04203867 -65 95 C-64.88364936 97.22970823 -64.75494901 99.45877413 -64.62109375 101.6875 C-64.51559204 103.54955078 -64.51559204 103.54955078 -64.40795898 105.44921875 C-63.69563374 111.64913402 -61.62651791 115.87770019 -56.76171875 119.80859375 C-46.02766366 126.76987053 -32.97635319 127.80552933 -20.58203125 125.3125 C-13.29209588 123.09502916 -7.94153672 119.58576856 -2.35546875 114.50390625 C1.45247206 111.10086041 1.45247206 111.10086041 4.375 110.5625 C8.13295449 111.18882575 9.37153546 113.01708795 11.8125 115.875 C12.60269531 116.77992188 13.39289063 117.68484375 14.20703125 118.6171875 C16 121 16 121 16 123 C17.485 123.495 17.485 123.495 19 124 C21.97531649 126.97531649 23.68962539 128.81023068 24.75 132.875 C22.36821057 142.79912261 10.49069923 149.58128357 2.375 154.625 C-3.52279127 158.00386365 -9.57477576 160.08817976 -16.04296875 162.0546875 C-18.85864548 162.70590806 -18.85864548 162.70590806 -20 164 C-22.31817089 164.32097751 -24.63779357 164.51220956 -26.96875 164.71875 C-28.99180593 164.79065837 -28.99180593 164.79065837 -30 166 C-41.98979392 166.95709531 -54.54587828 166.91231318 -66 163 C-67.03253906 162.64808594 -68.06507813 162.29617188 -69.12890625 161.93359375 C-76.0437092 159.31133431 -81.50318719 155.92036802 -87 151 C-87.68835938 150.40445313 -88.37671875 149.80890625 -89.0859375 149.1953125 C-101.66666672 137.57862384 -107.35585489 120.2297496 -108.17456055 103.41479492 C-108.23121992 99.56616352 -108.22413721 95.72383557 -108.1875 91.875 C-108.18603942 90.53645897 -108.18538364 89.19791682 -108.18554688 87.859375 C-108.14064515 78.14064515 -108.14064515 78.14064515 -107 77 C-106.72095259 74.98297251 -106.47811951 72.96092009 -106.25 70.9375 C-102.96899499 47.49495692 -91.95652907 26.61394971 -73 12 C-52.70372247 -2.39612763 -23.95617336 -9.10569069 0 0 Z " fill="#121928" transform="translate(1051,151)"/>
<path d="M0 0 C14.50238361 11.93765339 21.36905227 29.063452 23.375 47.375 C24.0159936 54.25651366 24.27110125 61.09129075 24 68 C23.98598145 68.65838867 23.97196289 69.31677734 23.95751953 69.99511719 C23.90979982 72.16464238 23.83325091 74.33157001 23.75 76.5 C23.73606201 77.18336426 23.72212402 77.86672852 23.70776367 78.57080078 C23.55705723 81.5737108 23.22606432 83.65910663 21.55255127 86.18267822 C17.69962806 88.92581657 14.17348177 88.57168448 9.54980469 88.54589844 C8.59337067 88.55623611 7.63693665 88.56657379 6.65151978 88.57722473 C3.49146755 88.60671281 0.33205416 88.6081532 -2.828125 88.609375 C-5.01960476 88.62435255 -7.21107321 88.6410788 -9.40252686 88.65948486 C-15.16960155 88.70321804 -20.93652397 88.72317081 -26.70373535 88.73822021 C-32.58904039 88.75776969 -38.47418046 88.79974215 -44.359375 88.83984375 C-55.90619919 88.91521061 -67.45298657 88.96546295 -79 89 C-79.03232342 90.57798788 -79.05521285 92.15617053 -79.07421875 93.734375 C-79.08799561 94.61319336 -79.10177246 95.49201172 -79.1159668 96.39746094 C-78.81565586 103.13707049 -75.77757629 108.32859208 -71 113 C-68.43197795 114.61297253 -65.81556873 115.87988224 -63 117 C-62.11441406 117.35835938 -61.22882813 117.71671875 -60.31640625 118.0859375 C-49.54131354 121.05575104 -35.90393639 120.13149574 -26 115 C-21.89523135 112.32755999 -18.30704593 109.36858293 -14.92578125 105.828125 C-13 104 -13 104 -10.1875 103.25 C-5.93695316 104.25012867 -4.5951449 106.2277531 -1.94140625 109.58203125 C0.18833378 112.23456461 2.51183659 114.61694421 4.875 117.0625 C7.57006756 120.07599164 8.96637825 121.90830431 10.375 125.75 C9.52524272 133.11456311 2.4126599 137.4753075 -3.04296875 141.828125 C-7.46759775 145.07791856 -12.05291329 147.63669813 -17 150 C-18.41925781 150.67869141 -18.41925781 150.67869141 -19.8671875 151.37109375 C-26.53049803 154.34925774 -33.0945758 156.07460878 -40.26171875 157.421875 C-42.90079498 157.71886632 -42.90079498 157.71886632 -44 159 C-65.46936095 160.84226378 -84.82339312 157.90671599 -101.875 143.9609375 C-112.73729454 133.93727599 -118.0737401 121.2630946 -121 107 C-121.20496094 106.154375 -121.40992188 105.30875 -121.62109375 104.4375 C-127.26970218 78.88241633 -120.45592025 48.11594224 -107 26 C-104.21062696 22.12064105 -101.2143035 18.53226518 -98 15 C-97.17242188 14.05060547 -97.17242188 14.05060547 -96.328125 13.08203125 C-73.43754195 -11.67832715 -28.3386507 -19.89924062 0 0 Z " fill="#121928" transform="translate(1761,158)"/>
<path d="M0 0 C1.20301254 -0.00708481 2.40602509 -0.01416962 3.64549255 -0.02146912 C4.98049964 -0.01917525 6.31550637 -0.01666555 7.6505127 -0.01396179 C9.05493949 -0.01830844 10.45936391 -0.02349143 11.86378479 -0.02944946 C15.67982924 -0.04285469 19.49577474 -0.04341654 23.31183815 -0.04088616 C26.49541954 -0.03981765 29.6789808 -0.04469666 32.86255789 -0.04949158 C40.37115574 -0.06059168 47.87970357 -0.06102112 55.38830566 -0.05497742 C63.14038343 -0.04893382 70.89227986 -0.06125719 78.64432669 -0.08254749 C85.29577084 -0.10014492 91.94715717 -0.10616786 98.59862375 -0.10290974 C102.57315913 -0.10109403 106.54756512 -0.10376177 110.52207947 -0.11762428 C114.25839614 -0.13016819 117.99442935 -0.12829147 121.7307415 -0.11521339 C123.10338371 -0.11284065 124.47604565 -0.1156072 125.84866524 -0.12383652 C127.71947824 -0.13424557 129.59037148 -0.12443338 131.46118164 -0.11352539 C132.50905098 -0.11369313 133.55692032 -0.11386087 134.63654327 -0.1140337 C137.23059082 0.26069641 137.23059082 0.26069641 139.07994843 1.65005207 C141.44581123 4.96173566 139.99407137 9.27632395 139.49719238 13.10249329 C139.17907233 15.67775088 138.92258646 18.25729378 138.66027832 20.83882141 C138.43579493 22.83384812 138.20921649 24.82864015 137.98059082 26.82319641 C137.88375 27.79941956 137.78690918 28.7756427 137.68713379 29.78144836 C137.51528564 31.16529724 137.51528564 31.16529724 137.33996582 32.57710266 C137.24683105 33.40669495 137.15369629 34.23628723 137.05773926 35.09101868 C135.82390399 38.32746909 134.38554757 38.83619804 131.23059082 40.26069641 C127.91839152 40.68631706 124.63494797 40.63971417 121.29968262 40.60127258 C120.30408829 40.60171066 119.30849396 40.60214874 118.2827301 40.6026001 C114.99822246 40.60051327 111.71422784 40.57718669 108.42980957 40.55366516 C106.15009337 40.54806884 103.87037356 40.54379891 101.59065247 40.540802 C95.594981 40.52935611 89.59952808 40.49989086 83.60394287 40.46669006 C77.48407955 40.43598383 71.36418087 40.42229546 65.2442627 40.40718079 C53.23960946 40.37502114 41.23511833 40.32382765 29.23059082 40.26069641 C29.23812881 41.92163078 29.23812881 41.92163078 29.24581909 43.61611938 C29.23414179 46.41084411 29.10325777 48.87991248 28.64465332 51.61616516 C28.45685303 52.78308899 28.45685303 52.78308899 28.26525879 53.97358704 C28.13006836 54.79020813 27.99487793 55.60682922 27.85559082 56.44819641 C26.56854846 64.5503332 25.60777301 72.64152501 24.87756348 80.81221008 C24.80585937 81.59958557 24.73415527 82.38696106 24.66027832 83.19819641 C24.60082031 83.88784485 24.5413623 84.57749329 24.48010254 85.28804016 C24.22079712 87.33812604 23.74655343 89.26172729 23.23059082 91.26069641 C24.07583817 91.25403458 24.92108551 91.24737274 25.79194641 91.24050903 C33.75241526 91.18043116 41.71280811 91.13473898 49.67345142 91.1052599 C53.76624525 91.08959495 57.85885196 91.06834183 61.95153809 91.03437805 C65.90023834 91.00181374 69.84875847 90.98384964 73.79758263 90.97606468 C75.3051099 90.97051587 76.81262718 90.95968047 78.3200779 90.94350624 C80.42954541 90.92177011 82.53826591 90.91872777 84.64782715 90.92012024 C85.84917801 90.9134584 87.05052887 90.90679657 88.2882843 90.89993286 C91.23059082 91.26069641 91.23059082 91.26069641 93.12150574 92.63134766 C94.67776254 94.9176331 94.5612466 96.58493278 94.48059082 99.32319641 C94.46512207 100.20104797 94.44965332 101.07889954 94.43371582 101.98335266 C94.23059082 104.26069641 94.23059082 104.26069641 93.23059082 106.26069641 C93.04689587 107.73277235 92.91058999 109.2109515 92.80090332 110.69038391 C92.72742676 111.56823547 92.6539502 112.44608704 92.57824707 113.35054016 C92.43047868 115.19894131 92.28978667 117.04792257 92.15637207 118.89741516 C92.08031738 119.77784485 92.0042627 120.65827454 91.92590332 121.56538391 C91.86418945 122.36959778 91.80247559 123.17381165 91.7388916 124.00239563 C91.09262042 126.87367731 90.31631972 128.16657807 88.23059082 130.26069641 C85.25032043 130.77967834 85.25032043 130.77967834 81.55603027 130.80659485 C80.5458786 130.82210136 80.5458786 130.82210136 79.51531982 130.83792114 C77.29126129 130.86739931 75.06811078 130.86884925 72.84387207 130.87007141 C71.30114501 130.88504983 69.75843401 130.90177627 68.21574402 130.92018127 C64.1567614 130.96390575 60.09799509 130.98386492 56.03881836 130.99891663 C51.89623191 131.01846955 47.7538797 131.06044149 43.6114502 131.10054016 C35.48455827 131.17589733 27.3577582 131.22615515 19.23059082 131.26069641 C17.86211326 133.99765152 17.83086784 136.4765684 17.54699707 139.52632141 C17.4238916 140.81022766 17.30078613 142.09413391 17.1739502 143.41694641 C17.04659476 144.78149226 16.91964313 146.14607585 16.79309082 147.51069641 C15.98517312 156.16268276 15.05061453 164.74825938 13.77282715 173.34516907 C13.11409837 178.10189675 12.57592666 182.86697874 12.04699707 187.63960266 C11.83939963 189.48531533 11.63171651 191.33101837 11.4239502 193.17671204 C11.1045195 196.01996635 10.7887715 198.86341817 10.48327637 201.70820618 C10.18214641 204.4991841 9.8659089 207.28810813 9.54699707 210.07710266 C9.45938614 210.9260762 9.37177521 211.77504974 9.2815094 212.64974976 C8.70128201 217.58926651 7.90156671 221.58972052 4.23059082 225.26069641 C1.44235344 225.37414791 -1.32018263 225.42487904 -4.10925293 225.42866516 C-4.94654434 225.43199356 -5.78383575 225.43532196 -6.64649963 225.43875122 C-8.42110645 225.44382398 -10.19572285 225.44615944 -11.97033691 225.44599915 C-14.69193174 225.44818439 -17.41312061 225.46633274 -20.13464355 225.48530579 C-21.85534529 225.48823983 -23.57604895 225.49022455 -25.29675293 225.49116516 C-26.11449692 225.49835068 -26.93224091 225.50553619 -27.77476501 225.51293945 C-33.54058714 225.48951845 -33.54058714 225.48951845 -35.76940918 223.26069641 C-35.99987793 221.05366516 -35.99987793 221.05366516 -35.95690918 218.44819641 C-35.94724121 217.17009094 -35.94724121 217.17009094 -35.93737793 215.86616516 C-35.76940918 213.26069641 -35.76940918 213.26069641 -35.28112793 210.85054016 C-34.67146754 207.76500703 -34.54070805 204.77763891 -34.39440918 201.63569641 C-34.0688872 195.87225152 -33.36223142 190.26205799 -32.39440918 184.57319641 C-30.8269308 175.31545752 -29.8504157 166.0278679 -28.89929199 156.68916321 C-28.07495624 148.73843404 -27.02003316 140.86194396 -25.75817871 132.97016907 C-24.81565166 126.95191245 -24.28437824 121.00091015 -23.98034668 114.91304016 C-23.76940918 112.26069641 -23.76940918 112.26069641 -22.76940918 109.26069641 C-22.56864667 107.09692271 -22.40617778 104.92945564 -22.26940918 102.76069641 C-22.05259613 99.32266083 -21.8599865 96.53242836 -20.76940918 93.26069641 C-20.50758424 91.30139402 -20.2853131 89.33669767 -20.08581543 87.37007141 C-19.96399902 86.19323792 -19.84218262 85.01640442 -19.7166748 83.8039093 C-19.58970215 82.55214905 -19.46272949 81.30038879 -19.33190918 80.01069641 C-18.12462983 68.44458112 -16.76633269 56.93908561 -15.05065918 45.43647766 C-14.78942886 43.66967069 -14.52903217 41.90274029 -14.26940918 40.13569641 C-14.07520386 38.81698547 -14.07520386 38.81698547 -13.8770752 37.47163391 C-12.81759681 30.06536271 -12.07872707 22.64699721 -11.50378418 15.1879425 C-11.12388421 10.62645487 -10.65984739 6.49292313 -8.76940918 2.26069641 C-5.324965 -0.03559971 -4.05565632 0.00794539 0 0 Z " fill="#141A29" transform="translate(645.7694091796875,89.73930358886719)"/>
<path d="M0 0 C49.16562009 -2.12056189 102.9315348 12.025002 141 44 C141.76054687 44.62519531 142.52109375 45.25039062 143.3046875 45.89453125 C152.52808217 53.72962949 161.65253449 64.08616689 167 75 C166.69403245 79.07172208 165.12419587 81.56860668 163 85 C162.26235463 86.70131022 161.52653141 88.40348332 160.80761719 90.11279297 C160.06020117 91.85932435 159.26073678 93.58333338 158.45703125 95.3046875 C149.08321857 115.65543522 143.70487612 137.17183085 139 159 C138.33728499 162.00089311 137.66865565 165.00042326 137 168 C131.1241634 167.42578839 126.1443688 165.77635657 120.6875 163.5625 C119.81448242 163.20833008 118.94146484 162.85416016 118.04199219 162.48925781 C98.45572032 154.32772132 81.30384221 142.67599227 66 128 C65.19433594 127.24589844 64.38867188 126.49179687 63.55859375 125.71484375 C52.27096245 114.85116104 43.39607737 102.15738725 35 89 C34.47019531 88.175 33.94039062 87.35 33.39453125 86.5 C26.73444135 75.75430874 20.18791113 64.1931318 15.86865234 52.29077148 C15.03602696 50.09500871 14.10256963 47.98633905 13.1171875 45.85546875 C10.93409559 40.97679383 9.17164833 36.01118241 7.5 30.9375 C7.19956787 30.03008057 6.89913574 29.12266113 6.58959961 28.18774414 C0 7.95726493 0 7.95726493 0 0 Z " fill="#F15A95" transform="translate(93,184)"/>
<path d="M0 0 C26.98300863 2.54775189 55.60350126 17.98210552 79 31 C80.26132543 31.6843192 81.52302673 32.36794621 82.78515625 33.05078125 C91.33191134 37.73834948 99.1839548 43.20329779 107 49 C104.20537949 51.99249846 101.45448947 54.11215054 97.921875 56.171875 C96.93396973 56.7498584 95.94606445 57.3278418 94.92822266 57.92333984 C93.87940918 58.5261377 92.8305957 59.12893555 91.75 59.75 C90.66895996 60.37471191 89.58791992 60.99942383 88.47412109 61.64306641 C72.00518103 71.08787477 54.86813291 79.52434522 37 86 C36.35224609 86.235979 35.70449219 86.47195801 35.03710938 86.71508789 C20.87854971 91.83898801 6.66919865 96.45053086 -7.9375 100.125 C-8.85789062 100.36669922 -9.77828125 100.60839844 -10.7265625 100.85742188 C-31.21326701 105.84917564 -52.08658538 106.4279073 -73.0625 106.1875 C-75.40559014 106.17239167 -77.74868995 106.15871439 -80.09179688 106.14648438 C-85.72808252 106.1140447 -91.36399281 106.06435564 -97 106 C-96 103 -96 103 -93.3671875 101.52734375 C-92.21476562 101.00269531 -91.06234375 100.47804688 -89.875 99.9375 C-73.31153454 92.05993727 -59.37792889 80.40750918 -46 68 C-45.40832031 67.46246094 -44.81664062 66.92492187 -44.20703125 66.37109375 C-38.07830151 60.56263018 -33.09934607 53.70063605 -28 47 C-27.28457031 46.06800781 -26.56914062 45.13601563 -25.83203125 44.17578125 C-15.54668513 30.44145679 -7.80978259 15.22148839 0 0 Z " fill="#F05995" transform="translate(460,261)"/>
<path d="M0 0 C0.80847885 -0.00145523 1.6169577 -0.00291046 2.44993591 -0.00440979 C4.15538139 -0.00275285 5.86084213 0.00878564 7.56616211 0.02954102 C10.17821602 0.05853406 12.78824452 0.05013937 15.40039062 0.03710938 C17.05860362 0.04334593 18.71681021 0.05173623 20.375 0.0625 C21.54694664 0.05809654 21.54694664 0.05809654 22.74256897 0.05360413 C28.09613188 0.14692831 28.09613188 0.14692831 30.62744141 1.83056641 C32.29049608 4.6181239 31.7158413 7.13745955 31.43359375 10.30859375 C31.33691406 11.51128906 31.24023438 12.71398437 31.140625 13.953125 C30.63461212 18.74065796 29.91349334 23.49608613 29.22094727 28.25952148 C27.93951295 37.19918896 26.82831314 46.16313583 25.68359375 55.12109375 C25.54903778 56.17141785 25.41448181 57.22174194 25.27584839 58.30389404 C23.66331417 70.91503036 22.14042512 83.51973288 20.87963867 96.17114258 C20.03785211 104.28306858 18.99947878 112.36168116 17.921875 120.4453125 C17.76580276 121.6161438 17.60973053 122.7869751 17.44892883 123.99328613 C16.65678288 129.91622822 15.85577468 135.83785836 15.04516602 141.75830078 C13.65655562 151.98695541 12.36770482 162.12712817 11.81445312 172.4387207 C11.53741329 176.81923815 10.90040614 181.10676114 10.18359375 185.43359375 C9.91510622 187.13647345 9.64820069 188.83960327 9.3828125 190.54296875 C9.25310059 191.37248047 9.12338867 192.20199219 8.98974609 193.05664062 C8.43035935 196.75822497 7.95407859 200.46828597 7.49609375 204.18359375 C7.33625 205.46234375 7.17640625 206.74109375 7.01171875 208.05859375 C6.77543115 210.13792464 6.56871651 212.22131708 6.41796875 214.30859375 C6.05404979 219.3372921 5.37209363 222.05090181 1.62109375 225.49609375 C-1.44821728 225.96651194 -3.95058011 226.12902829 -7.01171875 226.0546875 C-7.84476532 226.05235611 -8.67781189 226.05002472 -9.53610229 226.04762268 C-11.29289016 226.03789648 -13.04964716 226.01613502 -14.80615234 225.9831543 C-17.50144608 225.93363895 -20.19491701 225.92166752 -22.890625 225.91601562 C-24.59767576 225.90193349 -26.30471062 225.88573047 -28.01171875 225.8671875 C-28.82005157 225.8618248 -29.6283844 225.8564621 -30.46121216 225.85093689 C-36.14560298 225.72939702 -36.14560298 225.72939702 -38.37890625 223.49609375 C-38.4118488 220.91919079 -38.32233929 218.48275893 -38.12109375 215.921875 C-38.06839325 215.1632869 -38.01569275 214.40469879 -37.96139526 213.62312317 C-37.37415797 205.61683183 -36.47596175 197.65082137 -35.50390625 189.68359375 C-35.3241918 188.17880525 -35.1445871 186.67400364 -34.96508789 185.16918945 C-33.94786351 176.72271348 -32.79289059 168.30929159 -31.45361328 159.90771484 C-30.15251546 151.49912742 -29.35189832 143.04068126 -28.50585938 134.57641602 C-27.6884002 126.41412893 -26.79968189 118.2650993 -25.81640625 110.12109375 C-25.70167969 109.1669458 -25.58695313 108.21279785 -25.46875 107.22973633 C-24.84062092 102.07756108 -24.16994684 96.93253564 -23.47241211 91.78930664 C-22.38185579 83.66947206 -21.40798436 75.53685328 -20.43774796 67.40192604 C-19.8050327 62.12357283 -19.15695956 56.8470784 -18.51037788 51.57040882 C-17.94586806 46.95671606 -17.3878744 42.34240538 -16.84326172 37.72631836 C-16.31131069 33.22025984 -15.76264213 28.71652353 -15.20235825 24.21390343 C-14.99299047 22.50701442 -14.7896912 20.79936941 -14.59265518 19.09101295 C-14.31746065 16.71310726 -14.02093382 14.33877919 -13.71923828 11.96411133 C-13.64325409 11.26334976 -13.5672699 10.5625882 -13.48898315 9.84059143 C-13.06015432 6.63468021 -12.50141882 4.65771495 -10.53282166 2.06069946 C-7.24705617 -0.32608297 -3.9056603 -0.05630385 0 0 Z " fill="#131A29" transform="translate(899.37890625,89.50390625)"/>
<path d="M0 0 C1.44921875 2.1953125 1.44921875 2.1953125 2.6875 5.125 C6.01933677 12.31699549 10.19706986 18.63331607 14.703125 25.12402344 C15.94362225 26.91844755 17.16076036 28.72680983 18.375 30.5390625 C24.24083499 39.16486207 30.96228185 46.7243221 38.23730469 54.18603516 C39.92747563 55.92536619 41.59403322 57.68468108 43.2578125 59.44921875 C50.82003515 67.3650872 58.97644644 73.82815015 68 80 C69.61068359 81.13695312 69.61068359 81.13695312 71.25390625 82.296875 C81.83571915 89.47875524 93.4013327 94.67732391 105 100 C105 100.33 105 100.66 105 101 C54.25970788 101.62618549 54.25970788 101.62618549 36 98 C34.43475586 97.70270996 34.43475586 97.70270996 32.83789062 97.39941406 C13.95365603 93.78644315 13.95365603 93.78644315 7 91 C5.60951358 90.65969928 4.21038149 90.35273678 2.8046875 90.08203125 C-2.23984666 89.01030254 -7.02190963 87.41670293 -11.875 85.6875 C-13.19914917 85.21957031 -13.19914917 85.21957031 -14.55004883 84.7421875 C-19.89213348 82.82807588 -25.08161 80.75228617 -30.19921875 78.29296875 C-33.04753371 76.97805626 -35.92822833 75.82050733 -38.8449707 74.66870117 C-52.60439185 69.20203187 -65.47944888 62.14497209 -78.25 54.6875 C-78.92869141 54.29135498 -79.60738281 53.89520996 -80.30664062 53.48706055 C-84.71129986 50.87248029 -88.86636628 48.02526302 -93 45 C-91.89779369 41.69338106 -91.34737382 41.24149329 -88.6328125 39.28515625 C-87.92157227 38.76961182 -87.21033203 38.25406738 -86.47753906 37.72290039 C-85.70120117 37.17496826 -84.92486328 36.62703613 -84.125 36.0625 C-83.32288086 35.49200928 -82.52076172 34.92151855 -81.69433594 34.33374023 C-75.95675919 30.29236943 -70.14821242 26.3654704 -64.25 22.5625 C-63.53215332 22.09142822 -62.81430664 21.62035645 -62.07470703 21.13500977 C-50.60403999 13.88153744 -37.79882378 9.7590447 -24.9375 5.75 C-22.87116992 5.09953797 -20.80550401 4.44704022 -18.7403717 3.79278564 C-16.89180535 3.20807949 -15.04153664 2.62876318 -13.19116211 2.04980469 C-10.04503388 1.05829607 -10.04503388 1.05829607 -7.24169922 -0.13916016 C-4.33128212 -1.25679582 -2.88842579 -1.15920239 0 0 Z " fill="#EF5995" transform="translate(102,266)"/>
<path d="M0 0 C0.80060349 0.00022659 1.60120697 0.00045319 2.42607117 0.00068665 C3.28553848 0.0161705 4.1450058 0.03165436 5.03051758 0.04760742 C5.91411453 0.05185226 6.79771149 0.05609711 7.70808411 0.06047058 C10.53071544 0.07726574 13.35263324 0.11491921 16.17504883 0.15307617 C18.08844998 0.16812194 20.00186231 0.18181053 21.9152832 0.1940918 C26.60631342 0.22717199 31.29681014 0.27895987 35.98754883 0.34057617 C39.73862612 7.84273075 35.24027143 24.32314351 34.23754883 32.27807617 C34.06132617 33.70194117 33.88547504 35.12585218 33.70996094 36.54980469 C33.14173943 41.14747478 32.56508138 45.74406784 31.98754883 50.34057617 C31.78910185 51.92260215 31.59069715 53.50463343 31.39233398 55.08666992 C31.29307617 55.87816437 31.19381836 56.66965881 31.09155273 57.48513794 C30.99148926 58.28305756 30.89142578 59.08097717 30.78833008 59.90307617 C30.63678467 61.11143631 30.63678467 61.11143631 30.48217773 62.34420776 C30.27570783 63.99059699 30.06926679 65.63698984 29.862854 67.28338623 C29.65376465 68.95091974 29.4445763 70.61844084 29.23529053 72.28594971 C27.68161216 84.67194431 26.1629278 97.06179229 24.68423462 109.45697021 C24.47083851 111.24548107 24.25695587 113.03393394 24.04257202 114.82232666 C23.00554229 123.47889606 21.9887092 132.13483733 21.11254883 140.80932617 C20.98315918 142.06640381 20.85376953 143.32348145 20.72045898 144.61865234 C20.4903355 146.89116096 20.27040879 149.16473772 20.06323242 151.43945312 C19.14319685 160.52015966 19.14319685 160.52015966 15.98754883 164.34057617 C12.78055095 165.94407511 9.29153674 165.50359977 5.76879883 165.50854492 C4.5482782 165.51353752 4.5482782 165.51353752 3.30310059 165.51863098 C1.58154873 165.52369692 -0.14001296 165.52603941 -1.86157227 165.52587891 C-4.5018724 165.5280674 -7.14175615 165.54623184 -9.78198242 165.56518555 C-11.4525539 165.56811908 -13.12312738 165.57010414 -14.79370117 165.57104492 C-15.58643433 165.57823044 -16.37916748 165.58541595 -17.19592285 165.59281921 C-22.78362435 165.56940299 -22.78362435 165.56940299 -25.01245117 163.34057617 C-26.05846714 154.42725823 -24.50223086 145.07985745 -23.46826172 136.20800781 C-23.20407685 133.93851792 -22.95015091 131.66807151 -22.69799805 129.3972168 C-21.68591891 120.41769841 -20.48503345 111.47501074 -19.18353271 102.53317261 C-17.64022833 91.88184834 -16.29957476 81.20534711 -14.94995117 70.52807617 C-14.69163271 68.49485461 -14.43316951 66.46165143 -14.17456055 64.4284668 C-13.56154319 59.60569886 -12.95219606 54.78247598 -12.34393311 49.95910645 C-12.03258683 47.49963715 -11.71772454 45.04064759 -11.40161133 42.58178711 C-11.22109414 41.16675007 -11.04059174 39.75171115 -10.86010742 38.33666992 C-10.70678955 37.14356201 -10.55347168 35.9504541 -10.39550781 34.72119141 C-9.99895831 31.22149669 -9.73482235 27.73032621 -9.51245117 24.21557617 C-9.1877786 19.33988977 -8.74423295 14.50235677 -8.13745117 9.65307617 C-7.9956543 8.51483398 -7.85385742 7.3765918 -7.70776367 6.20385742 C-6.60162197 1.64879073 -4.67989024 -0.04428918 0 0 Z " fill="#121928" transform="translate(808.012451171875,149.659423828125)"/>
<path d="M0 0 C5.21645788 4.44823843 9.25662162 10.35153278 9.91918945 17.27050781 C9.94791674 20.73174277 9.97249097 24.19095716 9.95703125 27.65234375 C9.95074707 29.5396521 9.95074707 29.5396521 9.94433594 31.46508789 C9.74431166 48.02773677 7.82568344 66.73816582 -2.35546875 80.40234375 C-3.01546875 80.40234375 -3.67546875 80.40234375 -4.35546875 80.40234375 C-4.35546875 81.06234375 -4.35546875 81.72234375 -4.35546875 82.40234375 C-5.7109375 83.62109375 -5.7109375 83.62109375 -7.54296875 84.90234375 C-8.13464844 85.32515625 -8.72632813 85.74796875 -9.3359375 86.18359375 C-14.27180639 89.16229993 -18.59124907 89.74131413 -24.29296875 89.71484375 C-25.3284082 89.73901367 -25.3284082 89.73901367 -26.38476562 89.76367188 C-33.55878212 89.77047189 -38.09379007 87.02707436 -43.35546875 82.40234375 C-49.5174608 73.81310532 -50.256938 65.45177018 -49.98046875 55.15234375 C-49.95911024 53.76912492 -49.93778889 52.38590551 -49.91650391 51.00268555 C-49.52698341 33.4653221 -45.73819767 17.33987498 -33.30859375 4.24609375 C-24.94124069 -3.65268754 -10.21764725 -6.2552481 0 0 Z " fill="#FDFDFD" transform="translate(1559.35546875,189.59765625)"/>
<path d="M0 0 C1.02867188 -0.01740234 1.02867188 -0.01740234 2.078125 -0.03515625 C7.61740103 -0.00344284 11.55374215 1.31779841 15.79296875 4.8828125 C16.25316406 5.41648438 16.71335937 5.95015625 17.1875 6.5 C17.65542969 7.01820313 18.12335938 7.53640625 18.60546875 8.0703125 C23.52712283 16.20413857 23.50937229 24.64336912 23.4375 33.9375 C23.43512329 34.60252533 23.43274658 35.26755066 23.43029785 35.95272827 C23.3724738 46.27478809 22.59930405 55.64079969 19 65.375 C18.51466797 66.69564453 18.51466797 66.69564453 18.01953125 68.04296875 C15.97368151 73.02816179 13.3781266 78.15808686 10 82.375 C9.34 82.375 8.68 82.375 8 82.375 C8 83.035 8 83.695 8 84.375 C2.85582927 89.3584154 -2.91824358 91.51067797 -10 91.75 C-16.88369068 91.47591737 -21.82606849 89.95529413 -26.75 85 C-36.0544448 73.16185056 -35.31617427 56.9893194 -33.70263672 42.75097656 C-31.52941027 27.62906439 -26.57117603 13.01077452 -14 3.375 C-9.33883737 0.4970107 -5.37820572 -0.09098468 0 0 Z " fill="#FDFDFD" transform="translate(1372,186.625)"/>
<path d="M0 0 C4.74061713 1.07492291 9.04534421 3.02605504 13.5 4.9375 C14.41676514 5.32993896 15.33353027 5.72237793 16.27807617 6.12670898 C26.04519176 10.36504824 35.54034614 15.12032478 45 20 C44.43356902 24.2210001 43.73606836 28.36806438 42.89575195 32.54516602 C40.71952197 43.63843457 40.28487716 54.71980882 40 66 C34.9017549 65.33045199 30.32956892 63.86692331 25.5 62.1875 C12.05093211 57.46727258 12.05093211 57.46727258 -1.83203125 54.45703125 C-5 54 -5 54 -6 53 C-5.90514123 47.65872174 -5.42065617 42.3248147 -5 37 C-4.93409668 36.15630859 -4.86819336 35.31261719 -4.80029297 34.44335938 C-3.86342125 22.80093495 -2.42466693 11.42826349 0 0 Z " fill="#F05796" transform="translate(141,107)"/>
<path d="M0 0 C5.27902484 3.20130054 8.39275494 7.294412 10.375 13.125 C11.79703876 22.82374876 10.38061698 31.28389777 4.83203125 39.375 C-0.57315767 46.10365624 -7.21285306 49.41405486 -15.625 51.125 C-24.59919783 52.01433492 -30.4179578 50.56712543 -37.375 44.875 C-42.58369326 38.50881935 -44.28387306 33.37674501 -43.9296875 25.07421875 C-42.93897019 15.48458323 -38.79067575 9.55171544 -31.625 3.125 C-22.90342212 -3.6281662 -10.05415074 -4.25251089 0 0 Z " fill="#131A29" transform="translate(845.625,82.875)"/>
<path d="M0 0 C0.65284991 3.76965246 1.29595215 7.54090901 1.9375 11.3125 C2.21110352 12.8912793 2.21110352 12.8912793 2.49023438 14.50195312 C4.78980294 28.09031282 5.12121739 41.24856014 5 55 C-0.4982969 56.28593798 -5.99757197 57.56757367 -11.49780273 58.84521484 C-13.36917261 59.28055303 -15.24026862 59.71707018 -17.11108398 60.15478516 C-19.79860624 60.78337031 -22.48708153 61.40772326 -25.17578125 62.03125 C-26.01337479 62.22811401 -26.85096832 62.42497803 -27.71394348 62.62780762 C-28.49452621 62.80799438 -29.27510895 62.98818115 -30.0793457 63.17382812 C-30.76551468 63.33371216 -31.45168365 63.49359619 -32.15864563 63.6583252 C-34 64 -34 64 -37 64 C-37.0501123 63.43716309 -37.10022461 62.87432617 -37.15185547 62.29443359 C-38.12245255 43.80796919 -38.12245255 43.80796919 -42.125 25.93359375 C-43.11229328 22.62351673 -43.4089531 21.1635973 -42 18 C-39.70190978 16.47414253 -37.67633406 15.36975298 -35.1875 14.25 C-34.48987549 13.9192749 -33.79225098 13.5885498 -33.07348633 13.24780273 C-30.72512249 12.14343148 -28.36409877 11.07024644 -26 10 C-25.11957031 9.59604004 -24.23914063 9.19208008 -23.33203125 8.77587891 C-4.2045035 0 -4.2045035 0 0 0 Z " fill="#F05797" transform="translate(418,107)"/>
<path d="M0 0 C6.42053436 3.96689581 10.19901416 9.69840039 12.0078125 16.93359375 C12.0078125 19.90359375 12.0078125 22.87359375 12.0078125 25.93359375 C-6.1421875 25.93359375 -24.2921875 25.93359375 -42.9921875 25.93359375 C-41.61149401 16.26873932 -38.75070839 9.83064706 -31.34765625 3.40625 C-22.38705983 -2.19598027 -10.00425923 -3.56548664 0 0 Z " fill="#FCFCFC" transform="translate(1033.9921875,188.06640625)"/>
<path d="M0 0 C1.14662109 -0.0299707 1.14662109 -0.0299707 2.31640625 -0.06054688 C8.94177328 -0.05492262 14.03242208 1.83098541 19.11328125 6.11328125 C24.9219512 13.29272877 26.125 17.79141748 26.125 27.4375 C7.645 27.4375 -10.835 27.4375 -29.875 27.4375 C-28.30572976 18.02187858 -24.34531277 10.99609398 -17 4.875 C-11.20623354 0.95568739 -6.84779784 -0.06287627 0 0 Z " fill="#FCFCFC" transform="translate(1715.875,186.5625)"/>
<path d="M0 0 C0.99 0.33 1.98 0.66 3 1 C1.90716423 2.03295436 0.80029421 3.05107835 -0.3125 4.0625 C-0.92738281 4.63097656 -1.54226563 5.19945312 -2.17578125 5.78515625 C-2.77777344 6.18605469 -3.37976563 6.58695313 -4 7 C-4.99 6.67 -5.98 6.34 -7 6 C-7.20625 6.928125 -7.4125 7.85625 -7.625 8.8125 C-9.37701859 12.87399764 -10.97566304 13.39026521 -15 15 C-17.79429106 16.18545681 -19.18006168 17.18006168 -21.375 19.375 C-24 22 -24 22 -26.9375 23.875 C-30.64961017 26.45074992 -33.21220293 29.48065334 -36 33 C-36.99 32.67 -37.98 32.34 -39 32 C-29.35023645 21.85252993 -19.61960575 12.83359677 -8 5 C-7.13890625 4.40058594 -6.2778125 3.80117187 -5.390625 3.18359375 C-3.25 1.75 -3.25 1.75 0 0 Z " fill="#E26296" transform="translate(339,210)"/>
<path d="M0 0 C0.63427734 1.85009766 0.63427734 1.85009766 1 4 C-1.1484375 6.3984375 -1.1484375 6.3984375 -4 9 C-5.56470737 10.85581571 -7.10669553 12.73103257 -8.625 14.625 C-12.6972894 19.6979885 -12.6972894 19.6979885 -14.69140625 21.6875 C-16.16990616 23.04990819 -16.16990616 23.04990819 -17.3125 25.375 C-19.4546814 28.70728217 -21.88019172 30.57348245 -25 33 C-25.66 32.67 -26.32 32.34 -27 32 C-20.62856488 24.11615351 -14.09319208 16.38960696 -7.47509766 8.71289062 C-4.97798802 5.81323468 -2.48915627 2.90648342 0 0 Z " fill="#DF6095" transform="translate(275,13)"/>
<path d="M0 0 C0.66 0 1.32 0 2 0 C2 0.66 2 1.32 2 2 C1.34 2.66 0.68 3.32 0 4 C-0.33 4.66 -0.66 5.32 -1 6 C-2.64821244 7.03013277 -4.31503702 8.03114628 -6 9 C-6.33 9.33 -6.66 9.66 -7 10 C-8.66617115 10.04063832 -10.33388095 10.042721 -12 10 C-12 10.66 -12 11.32 -12 12 C-13.32 12 -14.64 12 -16 12 C-16.33 12.66 -16.66 13.32 -17 14 C-17.66 13.34 -18.32 12.68 -19 12 C-18.45996338 11.67201416 -17.91992676 11.34402832 -17.36352539 11.00610352 C-14.92895498 9.52636947 -12.49571323 8.04446459 -10.0625 6.5625 C-9.21236328 6.04623047 -8.36222656 5.52996094 -7.48632812 4.99804688 C-6.67744141 4.50498047 -5.86855469 4.01191406 -5.03515625 3.50390625 C-4.2862915 3.04830322 -3.53742676 2.5927002 -2.76586914 2.12329102 C-1.04777074 1.12013912 -1.04777074 1.12013912 0 0 Z " fill="#E15D98" transform="translate(390,349)"/>
<path d="M0 0 C0 3.47289374 -0.64169543 5.80798426 -2 9 C-3.9375 10.1875 -3.9375 10.1875 -6 11 C-6.45375 11.45375 -6.9075 11.9075 -7.375 12.375 C-9.65544887 14.65544887 -12.29729486 16.25825669 -15 18 C-13.52357373 12.77345099 -10.17768064 9.83173561 -6.375 6.1875 C-5.76398438 5.59001953 -5.15296875 4.99253906 -4.5234375 4.37695312 C-3.02235161 2.91104894 -1.51207138 1.45457007 0 0 Z " fill="#E15A91" transform="translate(420,323)"/>
<path d="M0 0 C8.58 0 17.16 0 26 0 C26 0.33 26 0.66 26 1 C23.69 1 21.38 1 19 1 C19 1.66 19 2.32 19 3 C12.2718373 3.22262303 6.46008837 2.95021536 0 1 C0 0.67 0 0.34 0 0 Z " fill="#ED468E" transform="translate(423,189)"/>
<path d="M0 0 C2 2 2 2 2.3125 4.75 C1.95494425 8.46857978 0.92415157 10.81774932 -1 14 C-1.99 14.495 -1.99 14.495 -3 15 C-2.35812082 9.86496656 -1.31727753 5.0056546 0 0 Z " fill="#ED679E" transform="translate(259,326)"/>
<path d="M0 0 C-2.6598561 3.44216672 -5.90288286 3.99504674 -10 5 C-10 4.34 -10 3.68 -10 3 C-11.98 3.33 -13.96 3.66 -16 4 C-10.96003362 0.64002241 -6.00290323 -0.29282455 0 0 Z " fill="#E968A1" transform="translate(382,195)"/>
<path d="M0 0 C4.99162787 0.47996422 6.85035583 0.88776687 11 4 C6.71 3.67 2.42 3.34 -2 3 C-1.34 2.01 -0.68 1.02 0 0 Z " fill="#F24F9C" transform="translate(196,363)"/>
<path d="M0 0 C-0.33 0.99 -0.66 1.98 -1 3 C-5.455 3.495 -5.455 3.495 -10 4 C-9.67 3.01 -9.34 2.02 -9 1 C-2.63157895 -1.31578947 -2.63157895 -1.31578947 0 0 Z " fill="#EC4C99" transform="translate(376,362)"/>
<path d="M0 0 C4.12751449 0.60698743 7.3321148 2.03810791 11 4 C10.34 5.32 9.68 6.64 9 8 C8.01 7.67 7.02 7.34 6 7 C6 6.01 6 5.02 6 4 C4.02 3.01 2.04 2.02 0 1 C0 0.67 0 0.34 0 0 Z " fill="#E7528F" transform="translate(505,277)"/>
<path d="M0 0 C0.66 0 1.32 0 2 0 C2 0.66 2 1.32 2 2 C7.445 1.01 7.445 1.01 13 0 C13 0.99 13 1.98 13 3 C8.38 3 3.76 3 -1 3 C-0.67 2.01 -0.34 1.02 0 0 Z " fill="#E970A7" transform="translate(364,364)"/>
<path d="M0 0 C0.66 0 1.32 0 2 0 C2 2.31 2 4.62 2 7 C-0.97 6.505 -0.97 6.505 -4 6 C-3.01 5.67 -2.02 5.34 -1 5 C-1 4.34 -1 3.68 -1 3 C-1.66 2.67 -2.32 2.34 -3 2 C-2.01 2 -1.02 2 0 2 C0 1.34 0 0.68 0 0 Z " fill="#E84A91" transform="translate(416,107)"/>
<path d="M0 0 C0.33 1.32 0.66 2.64 1 4 C-1.31 5.98 -3.62 7.96 -6 10 C-6.66 9.67 -7.32 9.34 -8 9 C-5.36 6.03 -2.72 3.06 0 0 Z " fill="#DE6598" transform="translate(275,13)"/>
<path d="M0 0 C0 3.38023517 -0.87455622 5.83468937 -2 9 C-3.65 8.67 -5.3 8.34 -7 8 C-6.02133662 6.85373678 -5.04205413 5.70800212 -4.0625 4.5625 C-3.51722656 3.92441406 -2.97195313 3.28632813 -2.41015625 2.62890625 C-1.63204305 1.73008851 -0.84063472 0.84063472 0 0 Z " fill="#DF6496" transform="translate(420,323)"/>
<path d="M0 0 C1.25 1.5625 1.25 1.5625 2 4 C0.93237266 6.57001015 -0.46544943 8.6530403 -2 11 C-2.95465783 8.83032311 -3.14401212 7.43671207 -2.3984375 5.17578125 C-1.64129615 3.4315257 -0.82390802 1.71372869 0 0 Z " fill="#E46A9D" transform="translate(218,95)"/>
<path d="M0 0 C2.5 1.8125 2.5 1.8125 5 4 C5 4.99 5 5.98 5 7 C3.35 6.67 1.7 6.34 0 6 C-0.38218767 4.34385343 -0.71395102 2.67542976 -1 1 C-0.67 0.67 -0.34 0.34 0 0 Z " fill="#E9518A" transform="translate(287,18)"/>
<path d="M0 0 C2.31 0.33 4.62 0.66 7 1 C5.35 2.32 3.7 3.64 2 5 C1.34 4.67 0.68 4.34 0 4 C0 2.68 0 1.36 0 0 Z " fill="#F64A95" transform="translate(93,184)"/>
<path d="M0 0 C0.33 0 0.66 0 1 0 C1.29296875 6.0546875 1.29296875 6.0546875 1 8 C0.01 8.66 -0.98 9.32 -2 10 C-1.54177532 6.53058454 -1.10868317 3.32604951 0 0 Z " fill="#E96DA0" transform="translate(267,300)"/>
<path d="M0 0 C0.66 0.33 1.32 0.66 2 1 C0.83857315 5.35535069 -0.07699505 7.64619703 -4 10 C-2.8905928 6.51329166 -1.73662334 3.22515763 0 0 Z " fill="#E77AA7" transform="translate(276,279)"/>
<path d="M0 0 C-3.96 1.98 -3.96 1.98 -8 4 C-8.33 3.01 -8.66 2.02 -9 1 C-3.375 -1.125 -3.375 -1.125 0 0 Z " fill="#E75F98" transform="translate(524,335)"/>
<path d="M0 0 C0.99 0.33 1.98 0.66 3 1 C1.02 3.31 -0.96 5.62 -3 8 C-3.33 7.34 -3.66 6.68 -4 6 C-2.68 4.02 -1.36 2.04 0 0 Z " fill="#E36D9E" transform="translate(289,257)"/>
<path d="M0 0 C0.66 0.33 1.32 0.66 2 1 C1.38125 1.0825 0.7625 1.165 0.125 1.25 C-2.18437567 1.81258459 -2.18437567 1.81258459 -3.25 4.0625 C-3.4975 4.701875 -3.745 5.34125 -4 6 C-5.32 5.34 -6.64 4.68 -8 4 C-6.71349294 3.30289269 -5.42059335 2.61757124 -4.125 1.9375 C-3.40570313 1.55464844 -2.68640625 1.17179688 -1.9453125 0.77734375 C-1.30335938 0.52082031 -0.66140625 0.26429688 0 0 Z " fill="#E36B9F" transform="translate(363,199)"/>
<path d="M0 0 C0.66 0.99 1.32 1.98 2 3 C0.84826645 5.46800047 -0.04783565 7.04783565 -2 9 C-2 6.36 -2 3.72 -2 1 C-1.34 0.67 -0.68 0.34 0 0 Z " fill="#F2528E" transform="translate(203,165)"/>
<path d="M0 0 C0.66 0 1.32 0 2 0 C1.65120368 3.25543229 0.97866739 4.01873107 -1.5625 6.25 C-2.366875 6.8275 -3.17125 7.405 -4 8 C-2.66666667 5.33333333 -1.33333333 2.66666667 0 0 Z " fill="#E2568E" transform="translate(422,321)"/>
<path d="M0 0 C2.475 0.99 2.475 0.99 5 2 C5 2.99 5 3.98 5 5 C2.525 4.01 2.525 4.01 0 3 C0 2.01 0 1.02 0 0 Z " fill="#EC508F" transform="translate(561,307)"/>
<path d="M0 0 C0 3.13751221 -0.35179805 4.39757586 -2 7 C-2.99 7.33 -3.98 7.66 -5 8 C-3.8141763 4.62496331 -2.72426311 2.35277269 0 0 Z " fill="#E4699A" transform="translate(455,274)"/>
<path d="M0 0 C2.9375 0.375 2.9375 0.375 6 1 C6.33 1.66 6.66 2.32 7 3 C4.69 3.33 2.38 3.66 0 4 C0 2.68 0 1.36 0 0 Z " fill="#EC478D" transform="translate(142,108)"/>
</svg>